name rise49.8558peak67.6521fall70.3087.mot
datacolumns 19
datarows 36
range 10.52662800000000 10.58496400000000
endheader
time	ground_force1_vx	ground_force1_vy	ground_force1_vz	ground_force1_px	ground_force1_py	ground_force1_pz	ground_force2_vx	ground_force2_vy	ground_force2_vz	ground_force2_px	ground_force2_py	ground_force2_pz	ground_torque1_x	ground_torque1_y	ground_torque1_z	ground_torque2_x	ground_torque2_y	ground_torque2_z	
10.52662800000000	56.80412900000000	671.69563700000003	50.55241900000000	0.42275500000000	0.00000000000000	0.11698000000000	-6.07972000000000	47.40265500000000	2.43289500000000	0.03333100000000	0.00000000000000	-0.06807000000000	0.00000000000000	27.99685800000000	0.00000000000000	0.00000000000000	-0.75218100000000	0.00000000000000	
10.52829700000000	56.40467900000000	675.81724299999996	50.76796300000000	0.42132900000000	0.00000000000000	0.11702400000000	-5.01378700000000	40.65867900000000	2.17282500000000	0.01938000000000	0.00000000000000	-0.06815700000000	0.00000000000000	28.10995500000000	0.00000000000000	0.00000000000000	-0.63276800000000	0.00000000000000	
10.52996000000000	56.00314900000000	679.91797399999996	50.99853000000000	0.41995100000000	0.00000000000000	0.11706700000000	-4.02211700000000	34.04886800000000	1.89250300000000	0.00391000000000	0.00000000000000	-0.06828300000000	0.00000000000000	28.23807200000000	0.00000000000000	0.00000000000000	-0.52290600000000	0.00000000000000	
10.53163000000000	55.59989800000000	683.99455599999999	51.24402000000000	0.41862100000000	0.00000000000000	0.11711000000000	-3.11697300000000	27.69574100000000	1.60106200000000	-0.01331800000000	0.00000000000000	-0.06845200000000	0.00000000000000	28.38109900000000	0.00000000000000	0.00000000000000	-0.42224200000000	0.00000000000000	
10.53330600000000	55.19525000000000	688.04362000000003	51.50421000000000	0.41733900000000	0.00000000000000	0.11715200000000	-2.30900200000000	21.72524900000000	1.30839700000000	0.00000000000000	0.00000000000000	0.00000000000000	0.00000000000000	28.53882600000000	0.00000000000000	0.00000000000000	-0.12920100000000	0.00000000000000	
10.53496300000000	54.78948600000000	692.06170999999995	51.77876500000000	0.41610600000000	0.00000000000000	0.11719300000000	-1.60629900000000	16.25626300000000	1.02444700000000	0.00000000000000	0.00000000000000	0.00000000000000	0.00000000000000	28.71095000000000	0.00000000000000	0.00000000000000	-0.08069000000000	0.00000000000000	
10.53662800000000	54.38285400000000	696.04529800000000	52.06723500000000	0.41492100000000	0.00000000000000	0.11723200000000	-1.01363200000000	11.39030100000000	0.75845400000000	0.00000000000000	0.00000000000000	0.00000000000000	0.00000000000000	28.89707800000000	0.00000000000000	0.00000000000000	-0.04182200000000	0.00000000000000	
10.53829700000000	53.97556400000000	699.99079500000005	52.36906200000000	0.41378500000000	0.00000000000000	0.11727100000000	-0.53194900000000	7.20294300000000	0.51829200000000	0.00000000000000	0.00000000000000	0.00000000000000	0.00000000000000	29.09673300000000	0.00000000000000	0.00000000000000	-0.01210800000000	0.00000000000000	
10.53996400000000	53.56779500000000	703.89456399999995	52.68358800000000	0.41269800000000	0.00000000000000	0.11730900000000	-0.15824600000000	3.73807800000000	0.30996000000000	0.00000000000000	0.00000000000000	0.00000000000000	0.00000000000000	29.30935300000000	0.00000000000000	0.00000000000000	0.00920600000000	0.00000000000000	
10.54162900000000	53.15969300000000	707.75292700000000	53.01005600000000	0.41165800000000	0.00000000000000	0.11734500000000	0.00000000000000	0.00000000000000	0.00000000000000	0.00000000000000	0.00000000000000	0.00000000000000	0.00000000000000	29.53430300000000	0.00000000000000	0.00000000000000	0.00000000000000	0.00000000000000	
10.54329000000000	52.75137500000000	711.56218699999999	53.34761700000000	0.41066600000000	0.00000000000000	0.11738000000000	0.00000000000000	0.00000000000000	0.00000000000000	0.00000000000000	0.00000000000000	0.00000000000000	0.00000000000000	29.77087200000000	0.00000000000000	0.00000000000000	0.00000000000000	0.00000000000000	
10.54495900000000	52.34292900000000	715.31863099999998	53.69533900000000	0.40972000000000	0.00000000000000	0.11741300000000	0.00000000000000	0.00000000000000	0.00000000000000	0.00000000000000	0.00000000000000	0.00000000000000	0.00000000000000	30.01828600000000	0.00000000000000	0.00000000000000	0.00000000000000	0.00000000000000	
10.54662200000000	51.93442100000000	719.01855000000000	54.05221300000000	0.40881900000000	0.00000000000000	0.11744500000000	0.00000000000000	0.00000000000000	0.00000000000000	0.00000000000000	0.00000000000000	0.00000000000000	0.00000000000000	30.27570600000000	0.00000000000000	0.00000000000000	0.00000000000000	0.00000000000000	
10.54829300000000	51.52588900000000	722.65824399999997	54.41715500000000	0.40796300000000	0.00000000000000	0.11747500000000	0.00000000000000	0.00000000000000	0.00000000000000	0.00000000000000	0.00000000000000	0.00000000000000	0.00000000000000	30.54223900000000	0.00000000000000	0.00000000000000	0.00000000000000	0.00000000000000	
10.54996300000000	51.11735300000000	726.23404200000004	54.78902200000000	0.40715100000000	0.00000000000000	0.11750300000000	0.00000000000000	0.00000000000000	0.00000000000000	0.00000000000000	0.00000000000000	0.00000000000000	0.00000000000000	30.81694100000000	0.00000000000000	0.00000000000000	0.00000000000000	0.00000000000000	
10.55163000000000	50.70881200000000	729.74230899999998	55.16661200000000	0.40638000000000	0.00000000000000	0.11752900000000	0.00000000000000	0.00000000000000	0.00000000000000	0.00000000000000	0.00000000000000	0.00000000000000	0.00000000000000	31.09882200000000	0.00000000000000	0.00000000000000	0.00000000000000	0.00000000000000	
10.55330500000000	50.30024800000000	733.17945799999995	55.54867600000000	0.40565000000000	0.00000000000000	0.11755400000000	0.00000000000000	0.00000000000000	0.00000000000000	0.00000000000000	0.00000000000000	0.00000000000000	0.00000000000000	31.38685400000000	0.00000000000000	0.00000000000000	0.00000000000000	0.00000000000000	
10.55495700000000	49.89162700000000	736.54196800000000	55.93392500000000	0.40495900000000	0.00000000000000	0.11757600000000	0.00000000000000	0.00000000000000	0.00000000000000	0.00000000000000	0.00000000000000	0.00000000000000	0.00000000000000	31.67997600000000	0.00000000000000	0.00000000000000	0.00000000000000	0.00000000000000	
10.55662600000000	49.48290300000000	739.82638499999996	56.32103700000000	0.40430500000000	0.00000000000000	0.11759700000000	0.00000000000000	0.00000000000000	0.00000000000000	0.00000000000000	0.00000000000000	0.00000000000000	0.00000000000000	31.97709700000000	0.00000000000000	0.00000000000000	0.00000000000000	0.00000000000000	
10.55830800000000	49.07401900000000	743.02934500000003	56.70866600000000	0.40368700000000	0.00000000000000	0.11761500000000	0.00000000000000	0.00000000000000	0.00000000000000	0.00000000000000	0.00000000000000	0.00000000000000	0.00000000000000	32.27710700000000	0.00000000000000	0.00000000000000	0.00000000000000	0.00000000000000	
10.55996300000000	48.66490600000000	746.14757699999996	57.09545000000000	0.40310300000000	0.00000000000000	0.11763100000000	0.00000000000000	0.00000000000000	0.00000000000000	0.00000000000000	0.00000000000000	0.00000000000000	0.00000000000000	32.57888000000000	0.00000000000000	0.00000000000000	0.00000000000000	0.00000000000000	
10.56162400000000	48.25549200000000	749.17791399999999	57.48001700000000	0.40255000000000	0.00000000000000	0.11764500000000	0.00000000000000	0.00000000000000	0.00000000000000	0.00000000000000	0.00000000000000	0.00000000000000	0.00000000000000	32.88127900000000	0.00000000000000	0.00000000000000	0.00000000000000	0.00000000000000	
10.56329100000000	47.84569600000000	752.11730799999998	57.86099700000000	0.40202800000000	0.00000000000000	0.11765700000000	0.00000000000000	0.00000000000000	0.00000000000000	0.00000000000000	0.00000000000000	0.00000000000000	0.00000000000000	33.18316400000000	0.00000000000000	0.00000000000000	0.00000000000000	0.00000000000000	
10.56495800000000	47.43543500000000	754.96283600000004	58.23702400000000	0.40153400000000	0.00000000000000	0.11766700000000	0.00000000000000	0.00000000000000	0.00000000000000	0.00000000000000	0.00000000000000	0.00000000000000	0.00000000000000	33.48339600000000	0.00000000000000	0.00000000000000	0.00000000000000	0.00000000000000	
10.56662500000000	47.02462200000000	757.71170900000004	58.60675000000000	0.40106500000000	0.00000000000000	0.11767400000000	0.00000000000000	0.00000000000000	0.00000000000000	0.00000000000000	0.00000000000000	0.00000000000000	0.00000000000000	33.78084300000000	0.00000000000000	0.00000000000000	0.00000000000000	0.00000000000000	
10.56829000000000	46.61317200000000	760.36128299999996	58.96884600000000	0.40062000000000	0.00000000000000	0.11767900000000	0.00000000000000	0.00000000000000	0.00000000000000	0.00000000000000	0.00000000000000	0.00000000000000	0.00000000000000	34.07438800000000	0.00000000000000	0.00000000000000	0.00000000000000	0.00000000000000	
10.56995600000000	46.20099900000000	762.90906500000006	59.32201300000000	0.40019600000000	0.00000000000000	0.11768100000000	0.00000000000000	0.00000000000000	0.00000000000000	0.00000000000000	0.00000000000000	0.00000000000000	0.00000000000000	34.36293000000000	0.00000000000000	0.00000000000000	0.00000000000000	0.00000000000000	
10.57163100000000	45.78802000000000	765.35272399999997	59.66498800000000	0.39979200000000	0.00000000000000	0.11768200000000	0.00000000000000	0.00000000000000	0.00000000000000	0.00000000000000	0.00000000000000	0.00000000000000	0.00000000000000	34.64539200000000	0.00000000000000	0.00000000000000	0.00000000000000	0.00000000000000	
10.57329200000000	45.37415500000000	767.69009200000005	59.99654900000000	0.39940500000000	0.00000000000000	0.11767900000000	0.00000000000000	0.00000000000000	0.00000000000000	0.00000000000000	0.00000000000000	0.00000000000000	0.00000000000000	34.92072700000000	0.00000000000000	0.00000000000000	0.00000000000000	0.00000000000000	
10.57496500000000	44.95933000000000	769.91917899999999	60.31552200000000	0.39903300000000	0.00000000000000	0.11767500000000	0.00000000000000	0.00000000000000	0.00000000000000	0.00000000000000	0.00000000000000	0.00000000000000	0.00000000000000	35.18791800000000	0.00000000000000	0.00000000000000	0.00000000000000	0.00000000000000	
10.57662700000000	44.54347500000000	772.03817100000003	60.62078500000000	0.39867400000000	0.00000000000000	0.11766800000000	0.00000000000000	0.00000000000000	0.00000000000000	0.00000000000000	0.00000000000000	0.00000000000000	0.00000000000000	35.44598800000000	0.00000000000000	0.00000000000000	0.00000000000000	0.00000000000000	
10.57829500000000	44.12652700000000	774.04544099999998	60.91127600000000	0.39832500000000	0.00000000000000	0.11765900000000	0.00000000000000	0.00000000000000	0.00000000000000	0.00000000000000	0.00000000000000	0.00000000000000	0.00000000000000	35.69400300000000	0.00000000000000	0.00000000000000	0.00000000000000	0.00000000000000	
10.57996400000000	43.70843200000000	775.93955000000005	61.18599500000000	0.39798400000000	0.00000000000000	0.11764700000000	0.00000000000000	0.00000000000000	0.00000000000000	0.00000000000000	0.00000000000000	0.00000000000000	0.00000000000000	35.93107300000000	0.00000000000000	0.00000000000000	0.00000000000000	0.00000000000000	
10.58162900000000	43.28914200000000	777.71925399999998	61.44400900000000	0.39764800000000	0.00000000000000	0.11763300000000	0.00000000000000	0.00000000000000	0.00000000000000	0.00000000000000	0.00000000000000	0.00000000000000	0.00000000000000	36.15635600000000	0.00000000000000	0.00000000000000	0.00000000000000	0.00000000000000	
10.58330700000000	42.86861900000000	779.38350500000001	61.68445500000000	0.39731700000000	0.00000000000000	0.11761700000000	0.00000000000000	0.00000000000000	0.00000000000000	0.00000000000000	0.00000000000000	0.00000000000000	0.00000000000000	36.36906700000000	0.00000000000000	0.00000000000000	0.00000000000000	0.00000000000000	
10.58496400000000	42.44683400000000	780.93145700000002	61.90654500000000	0.39698700000000	0.00000000000000	0.11759900000000	0.00000000000000	0.00000000000000	0.00000000000000	0.00000000000000	0.00000000000000	0.00000000000000	0.00000000000000	36.56847400000000	0.00000000000000	0.00000000000000	0.00000000000000	0.00000000000000	
